<svg id="Capa_1" enable-background="new 0 0 512 512" height="512" viewBox="0 0 512 512" width="512" xmlns="http://www.w3.org/2000/svg"><g><path d="m45 226.999v180.001h-15v30h-15v15h482v-15h-15v-30h-15v-180.001h-15v180.001h-22.5v15h37.5v15h-89.999v-15h37.499v-15h-22.5v-180.001h-15v180.001h-14.999v30h-46.001v-30h-15v-180.001h-15v180.001h-22.5v15h37.5v15h-90v-15h37.5v-15h-22.5v-180.001h-15v180.001h-15v30h-46.001v-30h-14.999v-180.001h-15v180.001h-22.5v15h37.499v15h-89.999v-15h37.5v-15h-22.5v-180.001z"/><path d="m15 482h233.5v-15h-248.5v45h437.001v-15h-422.001z"/><path d="m263.5 482h233.5v15h-45v15h60v-45h-248.5z"/><path d="m272.637 0h-33.273l-111.419 51.057 6.248 13.636 108.444-49.693h26.727l200.767 91.999h-428.261l78.685-36.057-6.248-13.636-114.307 52.38v72.313h30v30h119.999v-30h46.001v30h120v-30h46.001v30h119.999v-30h30v-72.313zm-137.638 196.999h-89.999v-15h89.999zm332.001 0h-89.999v-15h89.999zm-203.5-30v15h37.5v15h-90v-15h37.5v-15h-233.5v-45h482v45z"/><path d="m256 256.999h15v45h-15z"/><path d="m240.999 377h15v15h-15z"/><path d="m74.999 377h15v15h-15z"/><path d="m256 226.998h15v15h-15z"/><path d="m90 256.999h15v45h-15z"/><path d="m90 226.998h15v15h-15z"/><path d="m407 136.999h45v15h-45z"/><path d="m467 136.999h15v15h-15z"/><path d="m422.001 226.998h15v15h-15z"/><path d="m407 377h15v15h-15z"/><path d="m422.001 256.999h15v45h-15z"/><path d="m256 92c12.564 0 23.188-8.47 26.461-20h23.539v-15h-23.539c-3.272-11.53-13.896-20-26.461-20s-23.188 8.47-26.461 20h-23.539v15h23.539c3.273 11.529 13.897 20 26.461 20zm0-40.001c6.893 0 12.5 5.607 12.5 12.5s-5.607 12.5-12.5 12.5-12.5-5.607-12.5-12.5 5.607-12.5 12.5-12.5z"/><path d="m233.5 136.999h15v15h-15z"/><path d="m263.5 136.999h15v15h-15z"/></g></svg>