<svg id="Capa_1" enable-background="new 0 0 512 512" height="512" viewBox="0 0 512 512" width="512" xmlns="http://www.w3.org/2000/svg"><g><g><g clip-rule="evenodd" fill-rule="evenodd"><path d="m7.5 114.499h497l-233.5-106.999h-30zm248.5-30c-11.046 0-20-8.954-20-20s8.954-20 20-20 20 8.954 20 20-8.954 20-20 20z" fill="#decba0"/><ellipse cx="256" cy="64.499" fill="#e5ecf5" rx="20" ry="20" transform="matrix(.987 -.16 .16 .987 -7.026 41.84)"/><path d="m504.5 174.499v-60h-497v60zm-497 330.001h497v-30h-15v-30h-467v30h-15z" fill="#e5ecf5"/><path d="m52.5 414.5h75v-210.001h-75zm332 0h75v-210.001h-75zm-166 0h75v-210.001h-75z" fill="#e5ecf5"/><path d="m37.5 444.499h105v-30h-105zm332.001 0h104.999v-30h-104.999zm104.999-240v-30h-104.999v30zm-271 240h105v-30h-105zm105-240v-30h-105v30zm-166.001 0v-30h-105v30z" fill="#decba0"/><path d="m7.5 114.499h30l233.5-106.999h-30z" fill="#d4b981"/><path d="m30 114.499h-22.5v60h22.5zm-22.5 390.001h22.5v-30h15v-30h-22.5v30h-15z" fill="#cad8eb"/><path d="m52.5 414.5h22.5v-210.001h-22.5zm332 0h22.5v-210.001h-22.5zm-166 0h22.5v-210.001h-22.5z" fill="#cad8eb"/><path d="m37.5 444.499h22.5v-30h-22.5zm332.001 0h22.499v-30h-22.5v30zm22.499-270h-22.5v30h22.5zm-188.5 270h22.5v-30h-22.5zm22.5-270h-22.5v30h22.5zm-166 0h-22.5v30h22.5z" fill="#d4b981"/><path d="m142.499 444.499h61.001v-30h15v-210h-15v-30h-61.001v30h-15v210.001h15zm166.001 0h61.001v-30h15v-210h-15v-30h-61.001v30h-15v210.001h15z" fill="#87bcc4"/><path d="m142.499 211.999v195.001h15v37.5h-15v-30h-15v-210.001h15v-30h15v37.5zm166.001 0v195.001h15v37.5h-15v-30h-15v-210.001h15v-30h15v37.5z" fill="#5fa6b0"/><path d="m236 64.499c0 14.287 14.513 23.801 27.5 18.545-7.33-2.967-12.5-10.151-12.5-18.545 0-8.393 5.171-15.577 12.5-18.545-12.987-5.256-27.5 4.258-27.5 18.545z" fill="#cad8eb"/></g><g><path d="m422 392h-15v-15h15zm-166.001 0h-15v-15h15zm-166 0h-15v-15h15zm347.002-90.001h-15v-45h15zm-166.001 0h-15v-45h15zm-166 0h-15v-45h15zm332.001-60.001h-15v-15h15zm-166.001 0h-15v-15h15zm-166 0h-15v-15h15zm377-89.999h-15v-15h15zm-30 0h-45v-15h45z" fill="#fff"/></g></g><g><path d="m45 226.999v180.001h-15v30h-15v15h482v-15h-15v-30h-15v-180.001h-15v180.001h-22.5v15h37.5v15h-89.999v-15h37.499v-15h-22.5v-180.001h-15v180.001h-14.999v30h-46.001v-30h-15v-180.001h-15v180.001h-22.5v15h37.5v15h-90v-15h37.5v-15h-22.5v-180.001h-15v180.001h-15v30h-46.001v-30h-14.999v-180.001h-15v180.001h-22.5v15h37.499v15h-89.999v-15h37.5v-15h-22.5v-180.001z"/><path d="m15 482h233.5v-15h-248.5v45h437.001v-15h-422.001z"/><path d="m263.5 482h233.5v15h-45v15h60v-45h-248.5z"/><path d="m272.637 0h-33.273l-111.419 51.057 6.248 13.636 108.444-49.693h26.727l200.767 91.999h-428.261l78.685-36.057-6.248-13.636-114.307 52.38v72.313h30v30h119.999v-30h46.001v30h120v-30h46.001v30h119.999v-30h30v-72.313zm-137.638 196.999h-89.999v-15h89.999zm332.001 0h-89.999v-15h89.999zm-203.5-30v15h37.5v15h-90v-15h37.5v-15h-233.5v-45h482v45z"/><path d="m233.5 136.999h15v15h-15z"/><path d="m256 92c12.564 0 23.188-8.47 26.461-20h23.539v-15h-23.539c-3.272-11.53-13.896-20-26.461-20s-23.188 8.47-26.461 20h-23.539v15h23.539c3.273 11.529 13.897 20 26.461 20zm0-40.001c6.893 0 12.5 5.607 12.5 12.5s-5.607 12.5-12.5 12.5-12.5-5.607-12.5-12.5 5.607-12.5 12.5-12.5z"/><path d="m263.5 136.999h15v15h-15z"/></g></g></svg>